<?xml version="1.0" encoding="UTF-8" standalone="no"?>
<!DOCTYPE svg PUBLIC "-//W3C//DTD SVG 1.1//EN"
 "http://www.w3.org/Graphics/SVG/1.1/DTD/svg11.dtd">
<!-- Generated by graphviz version 2.43.0 (0)
 -->
<!-- Title: snakemake_dag Pages: 1 -->
<svg width="3955pt" height="337pt"
 viewBox="0.00 0.00 3954.50 337.00" xmlns="http://www.w3.org/2000/svg" xmlns:xlink="http://www.w3.org/1999/xlink">
<g id="graph0" class="graph" transform="scale(1 1) rotate(0) translate(4 333)">
<title>snakemake_dag</title>
<polygon fill="white" stroke="transparent" points="-4,4 -4,-333 3950.5,-333 3950.5,4 -4,4"/>
<!-- 1 -->
<g id="node1" class="node">
<title>1</title>
<path fill="none" stroke="#56d8c1" stroke-width="2" d="M132,-329C132,-329 12,-329 12,-329 6,-329 0,-323 0,-317 0,-317 0,-305 0,-305 0,-299 6,-293 12,-293 12,-293 132,-293 132,-293 138,-293 144,-299 144,-305 144,-305 144,-317 144,-317 144,-323 138,-329 132,-329"/>
<text text-anchor="middle" x="72" y="-314" font-family="sans" font-size="10.00">busco</text>
<text text-anchor="middle" x="72" y="-303" font-family="sans" font-size="10.00">fasta_file: fopius_arisanus</text>
</g>
<!-- 2 -->
<g id="node2" class="node">
<title>2</title>
<path fill="none" stroke="#56d8c1" stroke-width="2" d="M341.5,-329C341.5,-329 174.5,-329 174.5,-329 168.5,-329 162.5,-323 162.5,-317 162.5,-317 162.5,-305 162.5,-305 162.5,-299 168.5,-293 174.5,-293 174.5,-293 341.5,-293 341.5,-293 347.5,-293 353.5,-299 353.5,-305 353.5,-305 353.5,-317 353.5,-317 353.5,-323 347.5,-329 341.5,-329"/>
<text text-anchor="middle" x="258" y="-314" font-family="sans" font-size="10.00">busco</text>
<text text-anchor="middle" x="258" y="-303" font-family="sans" font-size="10.00">fasta_file: ma_FR_norm_k71_diplo1</text>
</g>
<!-- 3 -->
<g id="node3" class="node">
<title>3</title>
<path fill="none" stroke="#56d8c1" stroke-width="2" d="M574.5,-329C574.5,-329 383.5,-329 383.5,-329 377.5,-329 371.5,-323 371.5,-317 371.5,-317 371.5,-305 371.5,-305 371.5,-299 377.5,-293 383.5,-293 383.5,-293 574.5,-293 574.5,-293 580.5,-293 586.5,-299 586.5,-305 586.5,-305 586.5,-317 586.5,-317 586.5,-323 580.5,-329 574.5,-329"/>
<text text-anchor="middle" x="479" y="-314" font-family="sans" font-size="10.00">busco</text>
<text text-anchor="middle" x="479" y="-303" font-family="sans" font-size="10.00">fasta_file: ma_IE_trim&#45;decon_k71_diplo0</text>
</g>
<!-- 4 -->
<g id="node4" class="node">
<title>4</title>
<path fill="none" stroke="#56d8c1" stroke-width="2" d="M787,-329C787,-329 617,-329 617,-329 611,-329 605,-323 605,-317 605,-317 605,-305 605,-305 605,-299 611,-293 617,-293 617,-293 787,-293 787,-293 793,-293 799,-299 799,-305 799,-305 799,-317 799,-317 799,-323 793,-329 787,-329"/>
<text text-anchor="middle" x="702" y="-314" font-family="sans" font-size="10.00">busco</text>
<text text-anchor="middle" x="702" y="-303" font-family="sans" font-size="10.00">fasta_file: ma_MA_norm_k71_diplo0</text>
</g>
<!-- 5 -->
<g id="node5" class="node">
<title>5</title>
<path fill="none" stroke="#56d8c1" stroke-width="2" d="M1032.5,-329C1032.5,-329 829.5,-329 829.5,-329 823.5,-329 817.5,-323 817.5,-317 817.5,-317 817.5,-305 817.5,-305 817.5,-299 823.5,-293 829.5,-293 829.5,-293 1032.5,-293 1032.5,-293 1038.5,-293 1044.5,-299 1044.5,-305 1044.5,-305 1044.5,-317 1044.5,-317 1044.5,-323 1038.5,-329 1032.5,-329"/>
<text text-anchor="middle" x="931" y="-314" font-family="sans" font-size="10.00">busco</text>
<text text-anchor="middle" x="931" y="-303" font-family="sans" font-size="10.00">fasta_file: mh_UNK_trim&#45;decon_k41_diplo1</text>
</g>
<!-- 6 -->
<g id="node6" class="node">
<title>6</title>
<path fill="none" stroke="#d8bc56" stroke-width="2" d="M1195,-329C1195,-329 1075,-329 1075,-329 1069,-329 1063,-323 1063,-317 1063,-317 1063,-305 1063,-305 1063,-299 1069,-293 1075,-293 1075,-293 1195,-293 1195,-293 1201,-293 1207,-299 1207,-305 1207,-305 1207,-317 1207,-317 1207,-323 1201,-329 1195,-329"/>
<text text-anchor="middle" x="1135" y="-314" font-family="sans" font-size="10.00">assembly_stats</text>
<text text-anchor="middle" x="1135" y="-303" font-family="sans" font-size="10.00">fasta_file: fopius_arisanus</text>
</g>
<!-- 7 -->
<g id="node7" class="node">
<title>7</title>
<path fill="none" stroke="#d8bc56" stroke-width="2" d="M1404.5,-329C1404.5,-329 1237.5,-329 1237.5,-329 1231.5,-329 1225.5,-323 1225.5,-317 1225.5,-317 1225.5,-305 1225.5,-305 1225.5,-299 1231.5,-293 1237.5,-293 1237.5,-293 1404.5,-293 1404.5,-293 1410.5,-293 1416.5,-299 1416.5,-305 1416.5,-305 1416.5,-317 1416.5,-317 1416.5,-323 1410.5,-329 1404.5,-329"/>
<text text-anchor="middle" x="1321" y="-314" font-family="sans" font-size="10.00">assembly_stats</text>
<text text-anchor="middle" x="1321" y="-303" font-family="sans" font-size="10.00">fasta_file: ma_FR_norm_k71_diplo1</text>
</g>
<!-- 8 -->
<g id="node8" class="node">
<title>8</title>
<path fill="none" stroke="#d8bc56" stroke-width="2" d="M1637.5,-329C1637.5,-329 1446.5,-329 1446.5,-329 1440.5,-329 1434.5,-323 1434.5,-317 1434.5,-317 1434.5,-305 1434.5,-305 1434.5,-299 1440.5,-293 1446.5,-293 1446.5,-293 1637.5,-293 1637.5,-293 1643.5,-293 1649.5,-299 1649.5,-305 1649.5,-305 1649.5,-317 1649.5,-317 1649.5,-323 1643.5,-329 1637.5,-329"/>
<text text-anchor="middle" x="1542" y="-314" font-family="sans" font-size="10.00">assembly_stats</text>
<text text-anchor="middle" x="1542" y="-303" font-family="sans" font-size="10.00">fasta_file: ma_IE_trim&#45;decon_k71_diplo0</text>
</g>
<!-- 9 -->
<g id="node9" class="node">
<title>9</title>
<path fill="none" stroke="#d8bc56" stroke-width="2" d="M1850,-329C1850,-329 1680,-329 1680,-329 1674,-329 1668,-323 1668,-317 1668,-317 1668,-305 1668,-305 1668,-299 1674,-293 1680,-293 1680,-293 1850,-293 1850,-293 1856,-293 1862,-299 1862,-305 1862,-305 1862,-317 1862,-317 1862,-323 1856,-329 1850,-329"/>
<text text-anchor="middle" x="1765" y="-314" font-family="sans" font-size="10.00">assembly_stats</text>
<text text-anchor="middle" x="1765" y="-303" font-family="sans" font-size="10.00">fasta_file: ma_MA_norm_k71_diplo0</text>
</g>
<!-- 10 -->
<g id="node10" class="node">
<title>10</title>
<path fill="none" stroke="#d8bc56" stroke-width="2" d="M2095.5,-329C2095.5,-329 1892.5,-329 1892.5,-329 1886.5,-329 1880.5,-323 1880.5,-317 1880.5,-317 1880.5,-305 1880.5,-305 1880.5,-299 1886.5,-293 1892.5,-293 1892.5,-293 2095.5,-293 2095.5,-293 2101.5,-293 2107.5,-299 2107.5,-305 2107.5,-305 2107.5,-317 2107.5,-317 2107.5,-323 2101.5,-329 2095.5,-329"/>
<text text-anchor="middle" x="1994" y="-314" font-family="sans" font-size="10.00">assembly_stats</text>
<text text-anchor="middle" x="1994" y="-303" font-family="sans" font-size="10.00">fasta_file: mh_UNK_trim&#45;decon_k41_diplo1</text>
</g>
<!-- 11 -->
<g id="node11" class="node">
<title>11</title>
<path fill="none" stroke="#56d88a" stroke-width="2" d="M2818.5,-36C2818.5,-36 2747.5,-36 2747.5,-36 2741.5,-36 2735.5,-30 2735.5,-24 2735.5,-24 2735.5,-12 2735.5,-12 2735.5,-6 2741.5,0 2747.5,0 2747.5,0 2818.5,0 2818.5,0 2824.5,0 2830.5,-6 2830.5,-12 2830.5,-12 2830.5,-24 2830.5,-24 2830.5,-30 2824.5,-36 2818.5,-36"/>
<text text-anchor="middle" x="2783" y="-15.5" font-family="sans" font-size="10.00">plot_alignments</text>
</g>
<!-- 12 -->
<g id="node12" class="node">
<title>12</title>
<path fill="none" stroke="#d85656" stroke-width="2" d="M2937,-36C2937,-36 2861,-36 2861,-36 2855,-36 2849,-30 2849,-24 2849,-24 2849,-12 2849,-12 2849,-6 2855,0 2861,0 2861,0 2937,0 2937,0 2943,0 2949,-6 2949,-12 2949,-12 2949,-24 2949,-24 2949,-30 2943,-36 2937,-36"/>
<text text-anchor="middle" x="2899" y="-15.5" font-family="sans" font-size="10.00">subset_plot_data</text>
</g>
<!-- 13 -->
<g id="node13" class="node">
<title>13</title>
<path fill="none" stroke="#568ad8" stroke-width="2" d="M2893,-180C2893,-180 2789,-180 2789,-180 2783,-180 2777,-174 2777,-168 2777,-168 2777,-156 2777,-156 2777,-150 2783,-144 2789,-144 2789,-144 2893,-144 2893,-144 2899,-144 2905,-150 2905,-156 2905,-156 2905,-168 2905,-168 2905,-174 2899,-180 2893,-180"/>
<text text-anchor="middle" x="2841" y="-159.5" font-family="sans" font-size="10.00">make_distance_matrix</text>
</g>
<!-- 14 -->
<g id="node14" class="node">
<title>14</title>
<path fill="none" stroke="#56c1d8" stroke-width="2" d="M2909,-108C2909,-108 2773,-108 2773,-108 2767,-108 2761,-102 2761,-96 2761,-96 2761,-84 2761,-84 2761,-78 2767,-72 2773,-72 2773,-72 2909,-72 2909,-72 2915,-72 2921,-78 2921,-84 2921,-84 2921,-96 2921,-96 2921,-102 2915,-108 2909,-108"/>
<text text-anchor="middle" x="2841" y="-87.5" font-family="sans" font-size="10.00">combine_mummer_plot_data</text>
</g>
<!-- 14&#45;&gt;11 -->
<g id="edge1" class="edge">
<title>14&#45;&gt;11</title>
<path fill="none" stroke="grey" stroke-width="2" d="M2826.66,-71.7C2819.71,-63.3 2811.23,-53.07 2803.6,-43.86"/>
<polygon fill="grey" stroke="grey" stroke-width="2" points="2806.25,-41.57 2797.17,-36.1 2800.86,-46.04 2806.25,-41.57"/>
</g>
<!-- 14&#45;&gt;12 -->
<g id="edge2" class="edge">
<title>14&#45;&gt;12</title>
<path fill="none" stroke="grey" stroke-width="2" d="M2855.34,-71.7C2862.29,-63.3 2870.77,-53.07 2878.4,-43.86"/>
<polygon fill="grey" stroke="grey" stroke-width="2" points="2881.14,-46.04 2884.83,-36.1 2875.75,-41.57 2881.14,-46.04"/>
</g>
<!-- 15 -->
<g id="node15" class="node">
<title>15</title>
<path fill="none" stroke="#bed856" stroke-width="2" d="M3253.5,-257C3253.5,-257 3104.5,-257 3104.5,-257 3098.5,-257 3092.5,-251 3092.5,-245 3092.5,-245 3092.5,-228 3092.5,-228 3092.5,-222 3098.5,-216 3104.5,-216 3104.5,-216 3253.5,-216 3253.5,-216 3259.5,-216 3265.5,-222 3265.5,-228 3265.5,-228 3265.5,-245 3265.5,-245 3265.5,-251 3259.5,-257 3253.5,-257"/>
<text text-anchor="middle" x="3179" y="-245" font-family="sans" font-size="10.00">wga</text>
<text text-anchor="middle" x="3179" y="-234" font-family="sans" font-size="10.00">query: ma_FR_norm_k71_diplo1</text>
<text text-anchor="middle" x="3179" y="-223" font-family="sans" font-size="10.00">ref: fopius_arisanus</text>
</g>
<!-- 15&#45;&gt;13 -->
<g id="edge3" class="edge">
<title>15&#45;&gt;13</title>
<path fill="none" stroke="grey" stroke-width="2" d="M3092.37,-217.87C3043.08,-207.71 2979.95,-194.51 2915.08,-180.22"/>
<polygon fill="grey" stroke="grey" stroke-width="2" points="2915.6,-176.75 2905.08,-178.01 2914.09,-183.58 2915.6,-176.75"/>
</g>
<!-- 25 -->
<g id="node25" class="node">
<title>25</title>
<path fill="none" stroke="#59d856" stroke-width="2" d="M3212.5,-180C3212.5,-180 3111.5,-180 3111.5,-180 3105.5,-180 3099.5,-174 3099.5,-168 3099.5,-168 3099.5,-156 3099.5,-156 3099.5,-150 3105.5,-144 3111.5,-144 3111.5,-144 3212.5,-144 3212.5,-144 3218.5,-144 3224.5,-150 3224.5,-156 3224.5,-156 3224.5,-168 3224.5,-168 3224.5,-174 3218.5,-180 3212.5,-180"/>
<text text-anchor="middle" x="3162" y="-159.5" font-family="sans" font-size="10.00">read_mummer_output</text>
</g>
<!-- 15&#45;&gt;25 -->
<g id="edge43" class="edge">
<title>15&#45;&gt;25</title>
<path fill="none" stroke="grey" stroke-width="2" d="M3174.35,-215.69C3172.51,-207.82 3170.36,-198.64 3168.37,-190.17"/>
<polygon fill="grey" stroke="grey" stroke-width="2" points="3171.75,-189.26 3166.06,-180.32 3164.94,-190.85 3171.75,-189.26"/>
</g>
<!-- 16 -->
<g id="node16" class="node">
<title>16</title>
<path fill="none" stroke="#bed856" stroke-width="2" d="M2835.5,-257C2835.5,-257 2662.5,-257 2662.5,-257 2656.5,-257 2650.5,-251 2650.5,-245 2650.5,-245 2650.5,-228 2650.5,-228 2650.5,-222 2656.5,-216 2662.5,-216 2662.5,-216 2835.5,-216 2835.5,-216 2841.5,-216 2847.5,-222 2847.5,-228 2847.5,-228 2847.5,-245 2847.5,-245 2847.5,-251 2841.5,-257 2835.5,-257"/>
<text text-anchor="middle" x="2749" y="-245" font-family="sans" font-size="10.00">wga</text>
<text text-anchor="middle" x="2749" y="-234" font-family="sans" font-size="10.00">query: ma_IE_trim&#45;decon_k71_diplo0</text>
<text text-anchor="middle" x="2749" y="-223" font-family="sans" font-size="10.00">ref: fopius_arisanus</text>
</g>
<!-- 16&#45;&gt;13 -->
<g id="edge4" class="edge">
<title>16&#45;&gt;13</title>
<path fill="none" stroke="grey" stroke-width="2" d="M2774.14,-215.69C2785.64,-206.63 2799.34,-195.83 2811.34,-186.37"/>
<polygon fill="grey" stroke="grey" stroke-width="2" points="2813.64,-189.02 2819.33,-180.08 2809.31,-183.52 2813.64,-189.02"/>
</g>
<!-- 26 -->
<g id="node26" class="node">
<title>26</title>
<path fill="none" stroke="#59d856" stroke-width="2" d="M2746.5,-180C2746.5,-180 2645.5,-180 2645.5,-180 2639.5,-180 2633.5,-174 2633.5,-168 2633.5,-168 2633.5,-156 2633.5,-156 2633.5,-150 2639.5,-144 2645.5,-144 2645.5,-144 2746.5,-144 2746.5,-144 2752.5,-144 2758.5,-150 2758.5,-156 2758.5,-156 2758.5,-168 2758.5,-168 2758.5,-174 2752.5,-180 2746.5,-180"/>
<text text-anchor="middle" x="2696" y="-159.5" font-family="sans" font-size="10.00">read_mummer_output</text>
</g>
<!-- 16&#45;&gt;26 -->
<g id="edge44" class="edge">
<title>16&#45;&gt;26</title>
<path fill="none" stroke="grey" stroke-width="2" d="M2734.52,-215.69C2728.39,-207.3 2721.16,-197.42 2714.64,-188.5"/>
<polygon fill="grey" stroke="grey" stroke-width="2" points="2717.39,-186.33 2708.66,-180.32 2711.74,-190.46 2717.39,-186.33"/>
</g>
<!-- 17 -->
<g id="node17" class="node">
<title>17</title>
<path fill="none" stroke="#bed856" stroke-width="2" d="M2405,-257C2405,-257 2253,-257 2253,-257 2247,-257 2241,-251 2241,-245 2241,-245 2241,-228 2241,-228 2241,-222 2247,-216 2253,-216 2253,-216 2405,-216 2405,-216 2411,-216 2417,-222 2417,-228 2417,-228 2417,-245 2417,-245 2417,-251 2411,-257 2405,-257"/>
<text text-anchor="middle" x="2329" y="-245" font-family="sans" font-size="10.00">wga</text>
<text text-anchor="middle" x="2329" y="-234" font-family="sans" font-size="10.00">query: ma_MA_norm_k71_diplo0</text>
<text text-anchor="middle" x="2329" y="-223" font-family="sans" font-size="10.00">ref: fopius_arisanus</text>
</g>
<!-- 17&#45;&gt;13 -->
<g id="edge5" class="edge">
<title>17&#45;&gt;13</title>
<path fill="none" stroke="grey" stroke-width="2" d="M2417.23,-217.4C2420.18,-216.91 2423.11,-216.44 2426,-216 2576.65,-192.96 2616.68,-205.11 2767,-180 2767.1,-179.98 2767.2,-179.97 2767.3,-179.95"/>
<polygon fill="grey" stroke="grey" stroke-width="2" points="2767.7,-183.43 2776.92,-178.22 2766.46,-176.55 2767.7,-183.43"/>
</g>
<!-- 27 -->
<g id="node27" class="node">
<title>27</title>
<path fill="none" stroke="#59d856" stroke-width="2" d="M2410.5,-180C2410.5,-180 2309.5,-180 2309.5,-180 2303.5,-180 2297.5,-174 2297.5,-168 2297.5,-168 2297.5,-156 2297.5,-156 2297.5,-150 2303.5,-144 2309.5,-144 2309.5,-144 2410.5,-144 2410.5,-144 2416.5,-144 2422.5,-150 2422.5,-156 2422.5,-156 2422.5,-168 2422.5,-168 2422.5,-174 2416.5,-180 2410.5,-180"/>
<text text-anchor="middle" x="2360" y="-159.5" font-family="sans" font-size="10.00">read_mummer_output</text>
</g>
<!-- 17&#45;&gt;27 -->
<g id="edge45" class="edge">
<title>17&#45;&gt;27</title>
<path fill="none" stroke="grey" stroke-width="2" d="M2337.47,-215.69C2340.91,-207.65 2344.93,-198.24 2348.62,-189.61"/>
<polygon fill="grey" stroke="grey" stroke-width="2" points="2351.88,-190.89 2352.59,-180.32 2345.44,-188.14 2351.88,-190.89"/>
</g>
<!-- 18 -->
<g id="node18" class="node">
<title>18</title>
<path fill="none" stroke="#bed856" stroke-width="2" d="M3934.5,-257C3934.5,-257 3749.5,-257 3749.5,-257 3743.5,-257 3737.5,-251 3737.5,-245 3737.5,-245 3737.5,-228 3737.5,-228 3737.5,-222 3743.5,-216 3749.5,-216 3749.5,-216 3934.5,-216 3934.5,-216 3940.5,-216 3946.5,-222 3946.5,-228 3946.5,-228 3946.5,-245 3946.5,-245 3946.5,-251 3940.5,-257 3934.5,-257"/>
<text text-anchor="middle" x="3842" y="-245" font-family="sans" font-size="10.00">wga</text>
<text text-anchor="middle" x="3842" y="-234" font-family="sans" font-size="10.00">query: mh_UNK_trim&#45;decon_k41_diplo1</text>
<text text-anchor="middle" x="3842" y="-223" font-family="sans" font-size="10.00">ref: fopius_arisanus</text>
</g>
<!-- 18&#45;&gt;13 -->
<g id="edge6" class="edge">
<title>18&#45;&gt;13</title>
<path fill="none" stroke="grey" stroke-width="2" d="M3737.41,-216.97C3734.58,-216.62 3731.77,-216.3 3729,-216 3371.86,-177.45 3275,-228.37 2915.53,-180.05"/>
<polygon fill="grey" stroke="grey" stroke-width="2" points="2915.75,-176.55 2905.37,-178.67 2914.8,-183.49 2915.75,-176.55"/>
</g>
<!-- 28 -->
<g id="node28" class="node">
<title>28</title>
<path fill="none" stroke="#59d856" stroke-width="2" d="M3832.5,-180C3832.5,-180 3731.5,-180 3731.5,-180 3725.5,-180 3719.5,-174 3719.5,-168 3719.5,-168 3719.5,-156 3719.5,-156 3719.5,-150 3725.5,-144 3731.5,-144 3731.5,-144 3832.5,-144 3832.5,-144 3838.5,-144 3844.5,-150 3844.5,-156 3844.5,-156 3844.5,-168 3844.5,-168 3844.5,-174 3838.5,-180 3832.5,-180"/>
<text text-anchor="middle" x="3782" y="-159.5" font-family="sans" font-size="10.00">read_mummer_output</text>
</g>
<!-- 18&#45;&gt;28 -->
<g id="edge46" class="edge">
<title>18&#45;&gt;28</title>
<path fill="none" stroke="grey" stroke-width="2" d="M3825.6,-215.69C3818.59,-207.21 3810.32,-197.22 3802.88,-188.23"/>
<polygon fill="grey" stroke="grey" stroke-width="2" points="3805.41,-185.79 3796.33,-180.32 3800.01,-190.25 3805.41,-185.79"/>
</g>
<!-- 19 -->
<g id="node19" class="node">
<title>19</title>
<path fill="none" stroke="#bed856" stroke-width="2" d="M2620.5,-257C2620.5,-257 2447.5,-257 2447.5,-257 2441.5,-257 2435.5,-251 2435.5,-245 2435.5,-245 2435.5,-228 2435.5,-228 2435.5,-222 2441.5,-216 2447.5,-216 2447.5,-216 2620.5,-216 2620.5,-216 2626.5,-216 2632.5,-222 2632.5,-228 2632.5,-228 2632.5,-245 2632.5,-245 2632.5,-251 2626.5,-257 2620.5,-257"/>
<text text-anchor="middle" x="2534" y="-245" font-family="sans" font-size="10.00">wga</text>
<text text-anchor="middle" x="2534" y="-234" font-family="sans" font-size="10.00">query: ma_IE_trim&#45;decon_k71_diplo0</text>
<text text-anchor="middle" x="2534" y="-223" font-family="sans" font-size="10.00">ref: ma_FR_norm_k71_diplo1</text>
</g>
<!-- 19&#45;&gt;13 -->
<g id="edge7" class="edge">
<title>19&#45;&gt;13</title>
<path fill="none" stroke="grey" stroke-width="2" d="M2616.67,-215.98C2663.5,-204.92 2721.58,-191.2 2766.92,-180.5"/>
<polygon fill="grey" stroke="grey" stroke-width="2" points="2767.75,-183.89 2776.68,-178.19 2766.14,-177.08 2767.75,-183.89"/>
</g>
<!-- 29 -->
<g id="node29" class="node">
<title>29</title>
<path fill="none" stroke="#59d856" stroke-width="2" d="M2585.5,-180C2585.5,-180 2484.5,-180 2484.5,-180 2478.5,-180 2472.5,-174 2472.5,-168 2472.5,-168 2472.5,-156 2472.5,-156 2472.5,-150 2478.5,-144 2484.5,-144 2484.5,-144 2585.5,-144 2585.5,-144 2591.5,-144 2597.5,-150 2597.5,-156 2597.5,-156 2597.5,-168 2597.5,-168 2597.5,-174 2591.5,-180 2585.5,-180"/>
<text text-anchor="middle" x="2535" y="-159.5" font-family="sans" font-size="10.00">read_mummer_output</text>
</g>
<!-- 19&#45;&gt;29 -->
<g id="edge47" class="edge">
<title>19&#45;&gt;29</title>
<path fill="none" stroke="grey" stroke-width="2" d="M2534.27,-215.69C2534.38,-207.91 2534.51,-198.84 2534.62,-190.45"/>
<polygon fill="grey" stroke="grey" stroke-width="2" points="2538.12,-190.37 2534.76,-180.32 2531.12,-190.27 2538.12,-190.37"/>
</g>
<!-- 20 -->
<g id="node20" class="node">
<title>20</title>
<path fill="none" stroke="#bed856" stroke-width="2" d="M2211,-257C2211,-257 2059,-257 2059,-257 2053,-257 2047,-251 2047,-245 2047,-245 2047,-228 2047,-228 2047,-222 2053,-216 2059,-216 2059,-216 2211,-216 2211,-216 2217,-216 2223,-222 2223,-228 2223,-228 2223,-245 2223,-245 2223,-251 2217,-257 2211,-257"/>
<text text-anchor="middle" x="2135" y="-245" font-family="sans" font-size="10.00">wga</text>
<text text-anchor="middle" x="2135" y="-234" font-family="sans" font-size="10.00">query: ma_MA_norm_k71_diplo0</text>
<text text-anchor="middle" x="2135" y="-223" font-family="sans" font-size="10.00">ref: ma_FR_norm_k71_diplo1</text>
</g>
<!-- 20&#45;&gt;13 -->
<g id="edge8" class="edge">
<title>20&#45;&gt;13</title>
<path fill="none" stroke="grey" stroke-width="2" d="M2223.21,-217.26C2226.17,-216.81 2229.11,-216.39 2232,-216 2468.22,-184.45 2531.24,-214.79 2767,-180 2767.1,-179.98 2767.2,-179.97 2767.31,-179.95"/>
<polygon fill="grey" stroke="grey" stroke-width="2" points="2767.64,-183.45 2776.94,-178.37 2766.51,-176.54 2767.64,-183.45"/>
</g>
<!-- 30 -->
<g id="node30" class="node">
<title>30</title>
<path fill="none" stroke="#59d856" stroke-width="2" d="M2242.5,-180C2242.5,-180 2141.5,-180 2141.5,-180 2135.5,-180 2129.5,-174 2129.5,-168 2129.5,-168 2129.5,-156 2129.5,-156 2129.5,-150 2135.5,-144 2141.5,-144 2141.5,-144 2242.5,-144 2242.5,-144 2248.5,-144 2254.5,-150 2254.5,-156 2254.5,-156 2254.5,-168 2254.5,-168 2254.5,-174 2248.5,-180 2242.5,-180"/>
<text text-anchor="middle" x="2192" y="-159.5" font-family="sans" font-size="10.00">read_mummer_output</text>
</g>
<!-- 20&#45;&gt;30 -->
<g id="edge48" class="edge">
<title>20&#45;&gt;30</title>
<path fill="none" stroke="grey" stroke-width="2" d="M2150.58,-215.69C2157.24,-207.21 2165.1,-197.22 2172.17,-188.23"/>
<polygon fill="grey" stroke="grey" stroke-width="2" points="2174.95,-190.34 2178.38,-180.32 2169.45,-186.02 2174.95,-190.34"/>
</g>
<!-- 21 -->
<g id="node21" class="node">
<title>21</title>
<path fill="none" stroke="#bed856" stroke-width="2" d="M3707.5,-257C3707.5,-257 3522.5,-257 3522.5,-257 3516.5,-257 3510.5,-251 3510.5,-245 3510.5,-245 3510.5,-228 3510.5,-228 3510.5,-222 3516.5,-216 3522.5,-216 3522.5,-216 3707.5,-216 3707.5,-216 3713.5,-216 3719.5,-222 3719.5,-228 3719.5,-228 3719.5,-245 3719.5,-245 3719.5,-251 3713.5,-257 3707.5,-257"/>
<text text-anchor="middle" x="3615" y="-245" font-family="sans" font-size="10.00">wga</text>
<text text-anchor="middle" x="3615" y="-234" font-family="sans" font-size="10.00">query: mh_UNK_trim&#45;decon_k41_diplo1</text>
<text text-anchor="middle" x="3615" y="-223" font-family="sans" font-size="10.00">ref: ma_FR_norm_k71_diplo1</text>
</g>
<!-- 21&#45;&gt;13 -->
<g id="edge9" class="edge">
<title>21&#45;&gt;13</title>
<path fill="none" stroke="grey" stroke-width="2" d="M3510.39,-217.15C3507.23,-216.74 3504.09,-216.36 3501,-216 3244.65,-186.3 3174.41,-216.98 2915.46,-180.07"/>
<polygon fill="grey" stroke="grey" stroke-width="2" points="2915.77,-176.57 2905.37,-178.61 2914.77,-183.5 2915.77,-176.57"/>
</g>
<!-- 31 -->
<g id="node31" class="node">
<title>31</title>
<path fill="none" stroke="#59d856" stroke-width="2" d="M3614.5,-180C3614.5,-180 3513.5,-180 3513.5,-180 3507.5,-180 3501.5,-174 3501.5,-168 3501.5,-168 3501.5,-156 3501.5,-156 3501.5,-150 3507.5,-144 3513.5,-144 3513.5,-144 3614.5,-144 3614.5,-144 3620.5,-144 3626.5,-150 3626.5,-156 3626.5,-156 3626.5,-168 3626.5,-168 3626.5,-174 3620.5,-180 3614.5,-180"/>
<text text-anchor="middle" x="3564" y="-159.5" font-family="sans" font-size="10.00">read_mummer_output</text>
</g>
<!-- 21&#45;&gt;31 -->
<g id="edge49" class="edge">
<title>21&#45;&gt;31</title>
<path fill="none" stroke="grey" stroke-width="2" d="M3601.06,-215.69C3595.16,-207.3 3588.22,-197.42 3581.94,-188.5"/>
<polygon fill="grey" stroke="grey" stroke-width="2" points="3584.8,-186.48 3576.18,-180.32 3579.07,-190.51 3584.8,-186.48"/>
</g>
<!-- 22 -->
<g id="node22" class="node">
<title>22</title>
<path fill="none" stroke="#bed856" stroke-width="2" d="M2017,-257C2017,-257 1859,-257 1859,-257 1853,-257 1847,-251 1847,-245 1847,-245 1847,-228 1847,-228 1847,-222 1853,-216 1859,-216 1859,-216 2017,-216 2017,-216 2023,-216 2029,-222 2029,-228 2029,-228 2029,-245 2029,-245 2029,-251 2023,-257 2017,-257"/>
<text text-anchor="middle" x="1938" y="-245" font-family="sans" font-size="10.00">wga</text>
<text text-anchor="middle" x="1938" y="-234" font-family="sans" font-size="10.00">query: ma_MA_norm_k71_diplo0</text>
<text text-anchor="middle" x="1938" y="-223" font-family="sans" font-size="10.00">ref: ma_IE_trim&#45;decon_k71_diplo0</text>
</g>
<!-- 22&#45;&gt;13 -->
<g id="edge10" class="edge">
<title>22&#45;&gt;13</title>
<path fill="none" stroke="grey" stroke-width="2" d="M2029.2,-217.16C2032.16,-216.74 2035.1,-216.35 2038,-216 2360.02,-176.86 2445.67,-224.49 2767,-180 2767.1,-179.99 2767.2,-179.97 2767.31,-179.96"/>
<polygon fill="grey" stroke="grey" stroke-width="2" points="2767.62,-183.45 2776.95,-178.44 2766.53,-176.54 2767.62,-183.45"/>
</g>
<!-- 32 -->
<g id="node32" class="node">
<title>32</title>
<path fill="none" stroke="#59d856" stroke-width="2" d="M2047.5,-180C2047.5,-180 1946.5,-180 1946.5,-180 1940.5,-180 1934.5,-174 1934.5,-168 1934.5,-168 1934.5,-156 1934.5,-156 1934.5,-150 1940.5,-144 1946.5,-144 1946.5,-144 2047.5,-144 2047.5,-144 2053.5,-144 2059.5,-150 2059.5,-156 2059.5,-156 2059.5,-168 2059.5,-168 2059.5,-174 2053.5,-180 2047.5,-180"/>
<text text-anchor="middle" x="1997" y="-159.5" font-family="sans" font-size="10.00">read_mummer_output</text>
</g>
<!-- 22&#45;&gt;32 -->
<g id="edge50" class="edge">
<title>22&#45;&gt;32</title>
<path fill="none" stroke="grey" stroke-width="2" d="M1954.12,-215.69C1961.02,-207.21 1969.15,-197.22 1976.47,-188.23"/>
<polygon fill="grey" stroke="grey" stroke-width="2" points="1979.31,-190.28 1982.91,-180.32 1973.88,-185.87 1979.31,-190.28"/>
</g>
<!-- 23 -->
<g id="node23" class="node">
<title>23</title>
<path fill="none" stroke="#bed856" stroke-width="2" d="M3480.5,-257C3480.5,-257 3295.5,-257 3295.5,-257 3289.5,-257 3283.5,-251 3283.5,-245 3283.5,-245 3283.5,-228 3283.5,-228 3283.5,-222 3289.5,-216 3295.5,-216 3295.5,-216 3480.5,-216 3480.5,-216 3486.5,-216 3492.5,-222 3492.5,-228 3492.5,-228 3492.5,-245 3492.5,-245 3492.5,-251 3486.5,-257 3480.5,-257"/>
<text text-anchor="middle" x="3388" y="-245" font-family="sans" font-size="10.00">wga</text>
<text text-anchor="middle" x="3388" y="-234" font-family="sans" font-size="10.00">query: mh_UNK_trim&#45;decon_k41_diplo1</text>
<text text-anchor="middle" x="3388" y="-223" font-family="sans" font-size="10.00">ref: ma_IE_trim&#45;decon_k71_diplo0</text>
</g>
<!-- 23&#45;&gt;13 -->
<g id="edge11" class="edge">
<title>23&#45;&gt;13</title>
<path fill="none" stroke="grey" stroke-width="2" d="M3283.37,-217.31C3280.21,-216.86 3277.08,-216.42 3274,-216 3117.92,-194.87 3074.41,-205.82 2915.16,-180.06"/>
<polygon fill="grey" stroke="grey" stroke-width="2" points="2915.44,-176.56 2905,-178.4 2914.3,-183.47 2915.44,-176.56"/>
</g>
<!-- 33 -->
<g id="node33" class="node">
<title>33</title>
<path fill="none" stroke="#59d856" stroke-width="2" d="M3404.5,-180C3404.5,-180 3303.5,-180 3303.5,-180 3297.5,-180 3291.5,-174 3291.5,-168 3291.5,-168 3291.5,-156 3291.5,-156 3291.5,-150 3297.5,-144 3303.5,-144 3303.5,-144 3404.5,-144 3404.5,-144 3410.5,-144 3416.5,-150 3416.5,-156 3416.5,-156 3416.5,-168 3416.5,-168 3416.5,-174 3410.5,-180 3404.5,-180"/>
<text text-anchor="middle" x="3354" y="-159.5" font-family="sans" font-size="10.00">read_mummer_output</text>
</g>
<!-- 23&#45;&gt;33 -->
<g id="edge51" class="edge">
<title>23&#45;&gt;33</title>
<path fill="none" stroke="grey" stroke-width="2" d="M3378.71,-215.69C3374.94,-207.65 3370.52,-198.24 3366.48,-189.61"/>
<polygon fill="grey" stroke="grey" stroke-width="2" points="3369.54,-187.89 3362.12,-180.32 3363.2,-190.86 3369.54,-187.89"/>
</g>
<!-- 24 -->
<g id="node24" class="node">
<title>24</title>
<path fill="none" stroke="#bed856" stroke-width="2" d="M3062.5,-257C3062.5,-257 2877.5,-257 2877.5,-257 2871.5,-257 2865.5,-251 2865.5,-245 2865.5,-245 2865.5,-228 2865.5,-228 2865.5,-222 2871.5,-216 2877.5,-216 2877.5,-216 3062.5,-216 3062.5,-216 3068.5,-216 3074.5,-222 3074.5,-228 3074.5,-228 3074.5,-245 3074.5,-245 3074.5,-251 3068.5,-257 3062.5,-257"/>
<text text-anchor="middle" x="2970" y="-245" font-family="sans" font-size="10.00">wga</text>
<text text-anchor="middle" x="2970" y="-234" font-family="sans" font-size="10.00">query: mh_UNK_trim&#45;decon_k41_diplo1</text>
<text text-anchor="middle" x="2970" y="-223" font-family="sans" font-size="10.00">ref: ma_MA_norm_k71_diplo0</text>
</g>
<!-- 24&#45;&gt;13 -->
<g id="edge12" class="edge">
<title>24&#45;&gt;13</title>
<path fill="none" stroke="grey" stroke-width="2" d="M2935.09,-215.88C2918.19,-206.38 2897.83,-194.94 2880.37,-185.13"/>
<polygon fill="grey" stroke="grey" stroke-width="2" points="2881.98,-182.01 2871.54,-180.17 2878.55,-188.12 2881.98,-182.01"/>
</g>
<!-- 34 -->
<g id="node34" class="node">
<title>34</title>
<path fill="none" stroke="#59d856" stroke-width="2" d="M3036.5,-180C3036.5,-180 2935.5,-180 2935.5,-180 2929.5,-180 2923.5,-174 2923.5,-168 2923.5,-168 2923.5,-156 2923.5,-156 2923.5,-150 2929.5,-144 2935.5,-144 2935.5,-144 3036.5,-144 3036.5,-144 3042.5,-144 3048.5,-150 3048.5,-156 3048.5,-156 3048.5,-168 3048.5,-168 3048.5,-174 3042.5,-180 3036.5,-180"/>
<text text-anchor="middle" x="2986" y="-159.5" font-family="sans" font-size="10.00">read_mummer_output</text>
</g>
<!-- 24&#45;&gt;34 -->
<g id="edge52" class="edge">
<title>24&#45;&gt;34</title>
<path fill="none" stroke="grey" stroke-width="2" d="M2974.37,-215.69C2976.11,-207.82 2978.13,-198.64 2980,-190.17"/>
<polygon fill="grey" stroke="grey" stroke-width="2" points="2983.44,-190.84 2982.18,-180.32 2976.6,-189.33 2983.44,-190.84"/>
</g>
<!-- 25&#45;&gt;14 -->
<g id="edge13" class="edge">
<title>25&#45;&gt;14</title>
<path fill="none" stroke="grey" stroke-width="2" d="M3099.35,-147.34C3050.82,-136.76 2983,-121.97 2929.03,-110.2"/>
<polygon fill="grey" stroke="grey" stroke-width="2" points="2929.64,-106.75 2919.12,-108.04 2928.14,-113.59 2929.64,-106.75"/>
</g>
<!-- 26&#45;&gt;14 -->
<g id="edge14" class="edge">
<title>26&#45;&gt;14</title>
<path fill="none" stroke="grey" stroke-width="2" d="M2731.47,-143.88C2751.12,-134.39 2775.72,-122.51 2796.63,-112.42"/>
<polygon fill="grey" stroke="grey" stroke-width="2" points="2798.16,-115.57 2805.64,-108.07 2795.12,-109.26 2798.16,-115.57"/>
</g>
<!-- 27&#45;&gt;14 -->
<g id="edge15" class="edge">
<title>27&#45;&gt;14</title>
<path fill="none" stroke="grey" stroke-width="2" d="M2422.6,-150.42C2435.93,-148.24 2449.92,-146 2463,-144 2561.27,-129 2674.17,-113.38 2750.81,-103.02"/>
<polygon fill="grey" stroke="grey" stroke-width="2" points="2751.47,-106.46 2760.91,-101.66 2750.53,-99.53 2751.47,-106.46"/>
</g>
<!-- 28&#45;&gt;14 -->
<g id="edge16" class="edge">
<title>28&#45;&gt;14</title>
<path fill="none" stroke="grey" stroke-width="2" d="M3719.48,-153.09C3693.39,-149.97 3662.76,-146.53 3635,-144 3380.39,-120.79 3078.97,-103.44 2931.47,-95.61"/>
<polygon fill="grey" stroke="grey" stroke-width="2" points="2931.29,-92.09 2921.12,-95.06 2930.92,-99.08 2931.29,-92.09"/>
</g>
<!-- 29&#45;&gt;14 -->
<g id="edge17" class="edge">
<title>29&#45;&gt;14</title>
<path fill="none" stroke="grey" stroke-width="2" d="M2597.66,-146.67C2643.56,-136.17 2706.36,-121.8 2756.66,-110.29"/>
<polygon fill="grey" stroke="grey" stroke-width="2" points="2757.58,-113.67 2766.55,-108.03 2756.02,-106.85 2757.58,-113.67"/>
</g>
<!-- 30&#45;&gt;14 -->
<g id="edge18" class="edge">
<title>30&#45;&gt;14</title>
<path fill="none" stroke="grey" stroke-width="2" d="M2254.63,-149.17C2265.72,-147.28 2277.18,-145.47 2288,-144 2450.41,-121.87 2640.89,-105.77 2750.6,-97.44"/>
<polygon fill="grey" stroke="grey" stroke-width="2" points="2750.93,-100.93 2760.64,-96.68 2750.4,-93.94 2750.93,-100.93"/>
</g>
<!-- 31&#45;&gt;14 -->
<g id="edge19" class="edge">
<title>31&#45;&gt;14</title>
<path fill="none" stroke="grey" stroke-width="2" d="M3501.43,-152.93C3477.53,-149.95 3450.02,-146.66 3425,-144 3250.58,-125.42 3046.4,-107.84 2931.53,-98.33"/>
<polygon fill="grey" stroke="grey" stroke-width="2" points="2931.63,-94.83 2921.37,-97.5 2931.05,-101.81 2931.63,-94.83"/>
</g>
<!-- 32&#45;&gt;14 -->
<g id="edge20" class="edge">
<title>32&#45;&gt;14</title>
<path fill="none" stroke="grey" stroke-width="2" d="M2059.79,-151.53C2079.08,-148.84 2100.38,-146.07 2120,-144 2346.49,-120.05 2614.15,-103.42 2750.82,-95.77"/>
<polygon fill="grey" stroke="grey" stroke-width="2" points="2751.04,-99.26 2760.83,-95.21 2750.65,-92.28 2751.04,-99.26"/>
</g>
<!-- 33&#45;&gt;14 -->
<g id="edge21" class="edge">
<title>33&#45;&gt;14</title>
<path fill="none" stroke="grey" stroke-width="2" d="M3291.21,-152.11C3272.48,-149.48 3251.91,-146.61 3233,-144 3129.59,-129.75 3010.79,-113.73 2931.32,-103.08"/>
<polygon fill="grey" stroke="grey" stroke-width="2" points="2931.72,-99.6 2921.35,-101.74 2930.79,-106.54 2931.72,-99.6"/>
</g>
<!-- 34&#45;&gt;14 -->
<g id="edge22" class="edge">
<title>34&#45;&gt;14</title>
<path fill="none" stroke="grey" stroke-width="2" d="M2950.53,-143.88C2930.88,-134.39 2906.28,-122.51 2885.37,-112.42"/>
<polygon fill="grey" stroke="grey" stroke-width="2" points="2886.88,-109.26 2876.36,-108.07 2883.84,-115.57 2886.88,-109.26"/>
</g>
<!-- 35 -->
<g id="node35" class="node">
<title>35</title>
<path fill="none" stroke="#88d856" stroke-width="2" d="M3120,-329C3120,-329 3000,-329 3000,-329 2994,-329 2988,-323 2988,-317 2988,-317 2988,-305 2988,-305 2988,-299 2994,-293 3000,-293 3000,-293 3120,-293 3120,-293 3126,-293 3132,-299 3132,-305 3132,-305 3132,-317 3132,-317 3132,-323 3126,-329 3120,-329"/>
<text text-anchor="middle" x="3060" y="-314" font-family="sans" font-size="10.00">filter_short_contigs</text>
<text text-anchor="middle" x="3060" y="-303" font-family="sans" font-size="10.00">fasta_file: fopius_arisanus</text>
</g>
<!-- 35&#45;&gt;15 -->
<g id="edge23" class="edge">
<title>35&#45;&gt;15</title>
<path fill="none" stroke="grey" stroke-width="2" d="M3088.2,-292.82C3103.05,-283.77 3121.53,-272.52 3137.93,-262.52"/>
<polygon fill="grey" stroke="grey" stroke-width="2" points="3140.08,-265.31 3146.8,-257.12 3136.44,-259.33 3140.08,-265.31"/>
</g>
<!-- 35&#45;&gt;16 -->
<g id="edge25" class="edge">
<title>35&#45;&gt;16</title>
<path fill="none" stroke="grey" stroke-width="2" d="M2987.87,-293.18C2944.65,-283.11 2889.23,-270.19 2842.65,-259.33"/>
<polygon fill="grey" stroke="grey" stroke-width="2" points="2843.39,-255.91 2832.85,-257.05 2841.8,-262.73 2843.39,-255.91"/>
</g>
<!-- 35&#45;&gt;17 -->
<g id="edge27" class="edge">
<title>35&#45;&gt;17</title>
<path fill="none" stroke="grey" stroke-width="2" d="M2987.98,-300.65C2965.87,-297.96 2941.46,-295.17 2919,-293 2703.64,-272.17 2645.43,-286.27 2427.38,-257.1"/>
<polygon fill="grey" stroke="grey" stroke-width="2" points="2427.59,-253.59 2417.21,-255.72 2426.65,-260.53 2427.59,-253.59"/>
</g>
<!-- 35&#45;&gt;18 -->
<g id="edge29" class="edge">
<title>35&#45;&gt;18</title>
<path fill="none" stroke="grey" stroke-width="2" d="M3132.49,-306.44C3253.64,-300.02 3505.07,-284.63 3727.17,-257.17"/>
<polygon fill="grey" stroke="grey" stroke-width="2" points="3727.9,-260.61 3737.39,-255.9 3727.03,-253.66 3727.9,-260.61"/>
</g>
<!-- 36 -->
<g id="node36" class="node">
<title>36</title>
<path fill="none" stroke="#88d856" stroke-width="2" d="M2898.5,-329C2898.5,-329 2731.5,-329 2731.5,-329 2725.5,-329 2719.5,-323 2719.5,-317 2719.5,-317 2719.5,-305 2719.5,-305 2719.5,-299 2725.5,-293 2731.5,-293 2731.5,-293 2898.5,-293 2898.5,-293 2904.5,-293 2910.5,-299 2910.5,-305 2910.5,-305 2910.5,-317 2910.5,-317 2910.5,-323 2904.5,-329 2898.5,-329"/>
<text text-anchor="middle" x="2815" y="-314" font-family="sans" font-size="10.00">filter_short_contigs</text>
<text text-anchor="middle" x="2815" y="-303" font-family="sans" font-size="10.00">fasta_file: ma_FR_norm_k71_diplo1</text>
</g>
<!-- 36&#45;&gt;15 -->
<g id="edge24" class="edge">
<title>36&#45;&gt;15</title>
<path fill="none" stroke="grey" stroke-width="2" d="M2901.62,-292.99C2951.66,-283.13 3016.06,-270.4 3082.57,-257.08"/>
<polygon fill="grey" stroke="grey" stroke-width="2" points="3083.28,-260.51 3092.4,-255.11 3081.9,-253.65 3083.28,-260.51"/>
</g>
<!-- 36&#45;&gt;19 -->
<g id="edge31" class="edge">
<title>36&#45;&gt;19</title>
<path fill="none" stroke="grey" stroke-width="2" d="M2748.76,-292.91C2710.16,-282.95 2661.05,-270.28 2619.55,-259.57"/>
<polygon fill="grey" stroke="grey" stroke-width="2" points="2620.28,-256.15 2609.72,-257.04 2618.53,-262.92 2620.28,-256.15"/>
</g>
<!-- 36&#45;&gt;20 -->
<g id="edge33" class="edge">
<title>36&#45;&gt;20</title>
<path fill="none" stroke="grey" stroke-width="2" d="M2719.19,-297.39C2706.03,-295.82 2692.69,-294.31 2680,-293 2484.6,-272.86 2431.57,-284.34 2233.38,-257.11"/>
<polygon fill="grey" stroke="grey" stroke-width="2" points="2233.6,-253.6 2223.21,-255.69 2232.63,-260.54 2233.6,-253.6"/>
</g>
<!-- 36&#45;&gt;21 -->
<g id="edge35" class="edge">
<title>36&#45;&gt;21</title>
<path fill="none" stroke="grey" stroke-width="2" d="M2910.77,-299.51C2933.15,-297.22 2956.9,-294.91 2979,-293 3207.41,-273.29 3268.38,-284.32 3500.29,-257.02"/>
<polygon fill="grey" stroke="grey" stroke-width="2" points="3500.87,-260.47 3510.39,-255.81 3500.04,-253.52 3500.87,-260.47"/>
</g>
<!-- 37 -->
<g id="node37" class="node">
<title>37</title>
<path fill="none" stroke="#88d856" stroke-width="2" d="M2659.5,-329C2659.5,-329 2468.5,-329 2468.5,-329 2462.5,-329 2456.5,-323 2456.5,-317 2456.5,-317 2456.5,-305 2456.5,-305 2456.5,-299 2462.5,-293 2468.5,-293 2468.5,-293 2659.5,-293 2659.5,-293 2665.5,-293 2671.5,-299 2671.5,-305 2671.5,-305 2671.5,-317 2671.5,-317 2671.5,-323 2665.5,-329 2659.5,-329"/>
<text text-anchor="middle" x="2564" y="-314" font-family="sans" font-size="10.00">filter_short_contigs</text>
<text text-anchor="middle" x="2564" y="-303" font-family="sans" font-size="10.00">fasta_file: ma_IE_trim&#45;decon_k71_diplo0</text>
</g>
<!-- 37&#45;&gt;16 -->
<g id="edge26" class="edge">
<title>37&#45;&gt;16</title>
<path fill="none" stroke="grey" stroke-width="2" d="M2607.84,-292.82C2632.2,-283.27 2662.86,-271.26 2689.37,-260.87"/>
<polygon fill="grey" stroke="grey" stroke-width="2" points="2690.9,-264.03 2698.94,-257.12 2688.35,-257.51 2690.9,-264.03"/>
</g>
<!-- 37&#45;&gt;19 -->
<g id="edge32" class="edge">
<title>37&#45;&gt;19</title>
<path fill="none" stroke="grey" stroke-width="2" d="M2556.89,-292.82C2553.63,-284.95 2549.68,-275.4 2545.98,-266.46"/>
<polygon fill="grey" stroke="grey" stroke-width="2" points="2549.18,-265.02 2542.12,-257.12 2542.71,-267.7 2549.18,-265.02"/>
</g>
<!-- 37&#45;&gt;22 -->
<g id="edge37" class="edge">
<title>37&#45;&gt;22</title>
<path fill="none" stroke="grey" stroke-width="2" d="M2456.35,-302.07C2352.18,-293.73 2189.64,-278.95 2039.55,-257.16"/>
<polygon fill="grey" stroke="grey" stroke-width="2" points="2039.63,-253.64 2029.23,-255.65 2038.61,-260.56 2039.63,-253.64"/>
</g>
<!-- 37&#45;&gt;23 -->
<g id="edge39" class="edge">
<title>37&#45;&gt;23</title>
<path fill="none" stroke="grey" stroke-width="2" d="M2671.57,-296.83C2684.51,-295.44 2697.55,-294.12 2710,-293 2956.87,-270.76 3022.8,-285.81 3273.25,-257.01"/>
<polygon fill="grey" stroke="grey" stroke-width="2" points="3273.86,-260.47 3283.39,-255.84 3273.05,-253.51 3273.86,-260.47"/>
</g>
<!-- 38 -->
<g id="node38" class="node">
<title>38</title>
<path fill="none" stroke="#88d856" stroke-width="2" d="M2308,-329C2308,-329 2138,-329 2138,-329 2132,-329 2126,-323 2126,-317 2126,-317 2126,-305 2126,-305 2126,-299 2132,-293 2138,-293 2138,-293 2308,-293 2308,-293 2314,-293 2320,-299 2320,-305 2320,-305 2320,-317 2320,-317 2320,-323 2314,-329 2308,-329"/>
<text text-anchor="middle" x="2223" y="-314" font-family="sans" font-size="10.00">filter_short_contigs</text>
<text text-anchor="middle" x="2223" y="-303" font-family="sans" font-size="10.00">fasta_file: ma_MA_norm_k71_diplo0</text>
</g>
<!-- 38&#45;&gt;17 -->
<g id="edge28" class="edge">
<title>38&#45;&gt;17</title>
<path fill="none" stroke="grey" stroke-width="2" d="M2248.12,-292.82C2261.22,-283.86 2277.5,-272.72 2292.01,-262.8"/>
<polygon fill="grey" stroke="grey" stroke-width="2" points="2294.04,-265.65 2300.31,-257.12 2290.08,-259.88 2294.04,-265.65"/>
</g>
<!-- 38&#45;&gt;20 -->
<g id="edge34" class="edge">
<title>38&#45;&gt;20</title>
<path fill="none" stroke="grey" stroke-width="2" d="M2202.15,-292.82C2191.57,-284.11 2178.51,-273.35 2166.72,-263.64"/>
<polygon fill="grey" stroke="grey" stroke-width="2" points="2168.76,-260.78 2158.81,-257.12 2164.31,-266.18 2168.76,-260.78"/>
</g>
<!-- 38&#45;&gt;22 -->
<g id="edge38" class="edge">
<title>38&#45;&gt;22</title>
<path fill="none" stroke="grey" stroke-width="2" d="M2155.82,-292.91C2116.58,-282.93 2066.65,-270.23 2024.5,-259.5"/>
<polygon fill="grey" stroke="grey" stroke-width="2" points="2025.35,-256.11 2014.8,-257.04 2023.63,-262.89 2025.35,-256.11"/>
</g>
<!-- 38&#45;&gt;24 -->
<g id="edge41" class="edge">
<title>38&#45;&gt;24</title>
<path fill="none" stroke="grey" stroke-width="2" d="M2320.08,-302.33C2476.64,-289.91 2774.69,-265.95 2855.13,-256.97"/>
<polygon fill="grey" stroke="grey" stroke-width="2" points="2855.86,-260.41 2865.38,-255.75 2855.04,-253.46 2855.86,-260.41"/>
</g>
<!-- 39 -->
<g id="node39" class="node">
<title>39</title>
<path fill="none" stroke="#88d856" stroke-width="2" d="M3602.5,-329C3602.5,-329 3399.5,-329 3399.5,-329 3393.5,-329 3387.5,-323 3387.5,-317 3387.5,-317 3387.5,-305 3387.5,-305 3387.5,-299 3393.5,-293 3399.5,-293 3399.5,-293 3602.5,-293 3602.5,-293 3608.5,-293 3614.5,-299 3614.5,-305 3614.5,-305 3614.5,-317 3614.5,-317 3614.5,-323 3608.5,-329 3602.5,-329"/>
<text text-anchor="middle" x="3501" y="-314" font-family="sans" font-size="10.00">filter_short_contigs</text>
<text text-anchor="middle" x="3501" y="-303" font-family="sans" font-size="10.00">fasta_file: mh_UNK_trim&#45;decon_k41_diplo1</text>
</g>
<!-- 39&#45;&gt;18 -->
<g id="edge30" class="edge">
<title>39&#45;&gt;18</title>
<path fill="none" stroke="grey" stroke-width="2" d="M3581.38,-292.91C3628.82,-282.82 3689.33,-269.96 3740.09,-259.17"/>
<polygon fill="grey" stroke="grey" stroke-width="2" points="3741.06,-262.54 3750.11,-257.04 3739.6,-255.69 3741.06,-262.54"/>
</g>
<!-- 39&#45;&gt;21 -->
<g id="edge36" class="edge">
<title>39&#45;&gt;21</title>
<path fill="none" stroke="grey" stroke-width="2" d="M3528.02,-292.82C3542.24,-283.77 3559.94,-272.52 3575.66,-262.52"/>
<polygon fill="grey" stroke="grey" stroke-width="2" points="3577.59,-265.44 3584.15,-257.12 3573.83,-259.53 3577.59,-265.44"/>
</g>
<!-- 39&#45;&gt;23 -->
<g id="edge40" class="edge">
<title>39&#45;&gt;23</title>
<path fill="none" stroke="grey" stroke-width="2" d="M3474.22,-292.82C3460.12,-283.77 3442.58,-272.52 3427,-262.52"/>
<polygon fill="grey" stroke="grey" stroke-width="2" points="3428.89,-259.57 3418.58,-257.12 3425.11,-265.47 3428.89,-259.57"/>
</g>
<!-- 39&#45;&gt;24 -->
<g id="edge42" class="edge">
<title>39&#45;&gt;24</title>
<path fill="none" stroke="grey" stroke-width="2" d="M3387.27,-296.97C3305.65,-287.3 3192.81,-273.25 3084.74,-257.23"/>
<polygon fill="grey" stroke="grey" stroke-width="2" points="3085.04,-253.74 3074.63,-255.73 3084.01,-260.66 3085.04,-253.74"/>
</g>
</g>
</svg>
