<?xml version="1.0" encoding="UTF-8" standalone="no"?>
<!DOCTYPE svg PUBLIC "-//W3C//DTD SVG 1.1//EN"
 "http://www.w3.org/Graphics/SVG/1.1/DTD/svg11.dtd">
<!-- Generated by graphviz version 2.43.0 (0)
 -->
<!-- Title: snakemake_dag Pages: 1 -->
<svg width="406pt" height="508pt"
 viewBox="0.00 0.00 406.00 508.00" xmlns="http://www.w3.org/2000/svg" xmlns:xlink="http://www.w3.org/1999/xlink">
<g id="graph0" class="graph" transform="scale(1 1) rotate(0) translate(4 504)">
<title>snakemake_dag</title>
<polygon fill="white" stroke="transparent" points="-4,4 -4,-504 402,-504 402,4 -4,4"/>
<!-- 1 -->
<g id="node1" class="node">
<title>1</title>
<path fill="none" stroke="#88d856" stroke-width="2" d="M271.5,-36C271.5,-36 234.5,-36 234.5,-36 228.5,-36 222.5,-30 222.5,-24 222.5,-24 222.5,-12 222.5,-12 222.5,-6 228.5,0 234.5,0 234.5,0 271.5,0 271.5,0 277.5,0 283.5,-6 283.5,-12 283.5,-12 283.5,-24 283.5,-24 283.5,-30 277.5,-36 271.5,-36"/>
<text text-anchor="middle" x="253" y="-15.5" font-family="sans" font-size="10.00">plot_wga</text>
</g>
<!-- 2 -->
<g id="node2" class="node">
<title>2</title>
<path fill="none" stroke="#568ad8" stroke-width="2" d="M163.5,-124C163.5,-124 56.5,-124 56.5,-124 50.5,-124 44.5,-118 44.5,-112 44.5,-112 44.5,-84 44.5,-84 44.5,-78 50.5,-72 56.5,-72 56.5,-72 163.5,-72 163.5,-72 169.5,-72 175.5,-78 175.5,-84 175.5,-84 175.5,-112 175.5,-112 175.5,-118 169.5,-124 163.5,-124"/>
<text text-anchor="middle" x="110" y="-112" font-family="sans" font-size="10.00">index_fa</text>
<text text-anchor="middle" x="110" y="-101" font-family="sans" font-size="10.00">ext: fa</text>
<text text-anchor="middle" x="110" y="-90" font-family="sans" font-size="10.00">file: m_hyperodae</text>
<text text-anchor="middle" x="110" y="-79" font-family="sans" font-size="10.00">path: wga/020_oriented</text>
</g>
<!-- 2&#45;&gt;1 -->
<g id="edge1" class="edge">
<title>2&#45;&gt;1</title>
<path fill="none" stroke="grey" stroke-width="2" d="M156.03,-71.89C174.53,-61.8 195.64,-50.29 213.43,-40.58"/>
<polygon fill="grey" stroke="grey" stroke-width="2" points="215.29,-43.55 222.4,-35.69 211.94,-37.41 215.29,-43.55"/>
</g>
<!-- 3 -->
<g id="node3" class="node">
<title>3</title>
<path fill="none" stroke="#568ad8" stroke-width="2" d="M386,-428C386,-428 294,-428 294,-428 288,-428 282,-422 282,-416 282,-416 282,-388 282,-388 282,-382 288,-376 294,-376 294,-376 386,-376 386,-376 392,-376 398,-382 398,-388 398,-388 398,-416 398,-416 398,-422 392,-428 386,-428"/>
<text text-anchor="middle" x="340" y="-416" font-family="sans" font-size="10.00">index_fa</text>
<text text-anchor="middle" x="340" y="-405" font-family="sans" font-size="10.00">ext: fa</text>
<text text-anchor="middle" x="340" y="-394" font-family="sans" font-size="10.00">file: m_aethiopoides</text>
<text text-anchor="middle" x="340" y="-383" font-family="sans" font-size="10.00">path: wga/tmp</text>
</g>
<!-- 3&#45;&gt;1 -->
<g id="edge2" class="edge">
<title>3&#45;&gt;1</title>
<path fill="none" stroke="grey" stroke-width="2" d="M340,-375.79C340,-345.98 340,-294.88 340,-251 340,-251 340,-251 340,-177 340,-129.58 345.54,-112.58 321,-72 313.84,-60.16 302.99,-49.96 292.04,-41.76"/>
<polygon fill="grey" stroke="grey" stroke-width="2" points="293.9,-38.79 283.71,-35.89 289.86,-44.51 293.9,-38.79"/>
</g>
<!-- 9 -->
<g id="node9" class="node">
<title>9</title>
<path fill="none" stroke="#56c1d8" stroke-width="2" d="M151,-340C151,-340 121,-340 121,-340 115,-340 109,-334 109,-328 109,-328 109,-316 109,-316 109,-310 115,-304 121,-304 121,-304 151,-304 151,-304 157,-304 163,-310 163,-316 163,-316 163,-328 163,-328 163,-334 157,-340 151,-340"/>
<text text-anchor="middle" x="136" y="-319.5" font-family="sans" font-size="10.00">ragtag</text>
</g>
<!-- 3&#45;&gt;9 -->
<g id="edge12" class="edge">
<title>3&#45;&gt;9</title>
<path fill="none" stroke="grey" stroke-width="2" d="M281.81,-378.75C246.64,-365.3 202.88,-348.57 172.53,-336.97"/>
<polygon fill="grey" stroke="grey" stroke-width="2" points="173.76,-333.69 163.17,-333.39 171.26,-340.23 173.76,-333.69"/>
</g>
<!-- 4 -->
<g id="node4" class="node">
<title>4</title>
<path fill="none" stroke="#56d88a" stroke-width="2" d="M300,-118.5C300,-118.5 206,-118.5 206,-118.5 200,-118.5 194,-112.5 194,-106.5 194,-106.5 194,-89.5 194,-89.5 194,-83.5 200,-77.5 206,-77.5 206,-77.5 300,-77.5 300,-77.5 306,-77.5 312,-83.5 312,-89.5 312,-89.5 312,-106.5 312,-106.5 312,-112.5 306,-118.5 300,-118.5"/>
<text text-anchor="middle" x="253" y="-106.5" font-family="sans" font-size="10.00">sam_to_paf</text>
<text text-anchor="middle" x="253" y="-95.5" font-family="sans" font-size="10.00">folder: wga/030_wga</text>
<text text-anchor="middle" x="253" y="-84.5" font-family="sans" font-size="10.00">indiv: wga</text>
</g>
<!-- 4&#45;&gt;1 -->
<g id="edge3" class="edge">
<title>4&#45;&gt;1</title>
<path fill="none" stroke="grey" stroke-width="2" d="M253,-77.32C253,-67.87 253,-56.4 253,-46.14"/>
<polygon fill="grey" stroke="grey" stroke-width="2" points="256.5,-46.03 253,-36.03 249.5,-46.03 256.5,-46.03"/>
</g>
<!-- 5 -->
<g id="node5" class="node">
<title>5</title>
<path fill="none" stroke="#56d8c1" stroke-width="2" d="M164,-268C164,-268 94,-268 94,-268 88,-268 82,-262 82,-256 82,-256 82,-244 82,-244 82,-238 88,-232 94,-232 94,-232 164,-232 164,-232 170,-232 176,-238 176,-244 176,-244 176,-256 176,-256 176,-262 170,-268 164,-268"/>
<text text-anchor="middle" x="129" y="-247.5" font-family="sans" font-size="10.00">orient_scaffolds</text>
</g>
<!-- 5&#45;&gt;2 -->
<g id="edge4" class="edge">
<title>5&#45;&gt;2</title>
<path fill="none" stroke="grey" stroke-width="2" d="M126.82,-231.79C123.83,-208.18 118.38,-165.18 114.5,-134.51"/>
<polygon fill="grey" stroke="grey" stroke-width="2" points="117.92,-133.71 113.2,-124.23 110.98,-134.59 117.92,-133.71"/>
</g>
<!-- 7 -->
<g id="node7" class="node">
<title>7</title>
<path fill="none" stroke="#d88d56" stroke-width="2" d="M268,-196C268,-196 238,-196 238,-196 232,-196 226,-190 226,-184 226,-184 226,-172 226,-172 226,-166 232,-160 238,-160 238,-160 268,-160 268,-160 274,-160 280,-166 280,-172 280,-172 280,-184 280,-184 280,-190 274,-196 268,-196"/>
<text text-anchor="middle" x="253" y="-175.5" font-family="sans" font-size="10.00">wga</text>
</g>
<!-- 5&#45;&gt;7 -->
<g id="edge9" class="edge">
<title>5&#45;&gt;7</title>
<path fill="none" stroke="grey" stroke-width="2" d="M159.33,-231.88C176.75,-222.04 198.73,-209.64 217.02,-199.31"/>
<polygon fill="grey" stroke="grey" stroke-width="2" points="218.95,-202.24 225.93,-194.28 215.5,-196.15 218.95,-202.24"/>
</g>
<!-- 6 -->
<g id="node6" class="node">
<title>6</title>
<path fill="none" stroke="#d85656" stroke-width="2" d="M303.5,-500C303.5,-500 204.5,-500 204.5,-500 198.5,-500 192.5,-494 192.5,-488 192.5,-488 192.5,-476 192.5,-476 192.5,-470 198.5,-464 204.5,-464 204.5,-464 303.5,-464 303.5,-464 309.5,-464 315.5,-470 315.5,-476 315.5,-476 315.5,-488 315.5,-488 315.5,-494 309.5,-500 303.5,-500"/>
<text text-anchor="middle" x="254" y="-485" font-family="sans" font-size="10.00">tmp_ref</text>
<text text-anchor="middle" x="254" y="-474" font-family="sans" font-size="10.00">spec: m_aethiopoides</text>
</g>
<!-- 6&#45;&gt;3 -->
<g id="edge5" class="edge">
<title>6&#45;&gt;3</title>
<path fill="none" stroke="grey" stroke-width="2" d="M273.09,-463.69C282.32,-455.31 293.72,-444.97 304.48,-435.22"/>
<polygon fill="grey" stroke="grey" stroke-width="2" points="307.1,-437.57 312.15,-428.26 302.39,-432.38 307.1,-437.57"/>
</g>
<!-- 6&#45;&gt;9 -->
<g id="edge13" class="edge">
<title>6&#45;&gt;9</title>
<path fill="none" stroke="grey" stroke-width="2" d="M246.99,-463.87C237.6,-442.1 219.46,-403.98 197,-376 188.48,-365.38 177.65,-355.2 167.49,-346.64"/>
<polygon fill="grey" stroke="grey" stroke-width="2" points="169.5,-343.77 159.54,-340.16 165.07,-349.19 169.5,-343.77"/>
</g>
<!-- 10 -->
<g id="node10" class="node">
<title>10</title>
<path fill="none" stroke="#d8bc56" stroke-width="2" d="M281.5,-340C281.5,-340 226.5,-340 226.5,-340 220.5,-340 214.5,-334 214.5,-328 214.5,-328 214.5,-316 214.5,-316 214.5,-310 220.5,-304 226.5,-304 226.5,-304 281.5,-304 281.5,-304 287.5,-304 293.5,-310 293.5,-316 293.5,-316 293.5,-328 293.5,-328 293.5,-334 287.5,-340 281.5,-340"/>
<text text-anchor="middle" x="254" y="-319.5" font-family="sans" font-size="10.00">minimap_ref</text>
</g>
<!-- 6&#45;&gt;10 -->
<g id="edge15" class="edge">
<title>6&#45;&gt;10</title>
<path fill="none" stroke="grey" stroke-width="2" d="M254,-463.79C254,-436.48 254,-382.99 254,-350.38"/>
<polygon fill="grey" stroke="grey" stroke-width="2" points="257.5,-350.19 254,-340.19 250.5,-350.19 257.5,-350.19"/>
</g>
<!-- 7&#45;&gt;4 -->
<g id="edge6" class="edge">
<title>7&#45;&gt;4</title>
<path fill="none" stroke="grey" stroke-width="2" d="M253,-159.69C253,-150.6 253,-139.21 253,-128.76"/>
<polygon fill="grey" stroke="grey" stroke-width="2" points="256.5,-128.74 253,-118.74 249.5,-128.74 256.5,-128.74"/>
</g>
<!-- 8 -->
<g id="node8" class="node">
<title>8</title>
<path fill="none" stroke="#d85656" stroke-width="2" d="M100,-500C100,-500 12,-500 12,-500 6,-500 0,-494 0,-488 0,-488 0,-476 0,-476 0,-470 6,-464 12,-464 12,-464 100,-464 100,-464 106,-464 112,-470 112,-476 112,-476 112,-488 112,-488 112,-494 106,-500 100,-500"/>
<text text-anchor="middle" x="56" y="-485" font-family="sans" font-size="10.00">tmp_ref</text>
<text text-anchor="middle" x="56" y="-474" font-family="sans" font-size="10.00">spec: m_hyperodae</text>
</g>
<!-- 8&#45;&gt;5 -->
<g id="edge7" class="edge">
<title>8&#45;&gt;5</title>
<path fill="none" stroke="grey" stroke-width="2" d="M53.31,-463.91C50.59,-442.83 47.86,-406.09 56,-376 66.17,-338.41 90.78,-300.52 108.62,-276.47"/>
<polygon fill="grey" stroke="grey" stroke-width="2" points="111.59,-278.35 114.84,-268.27 106.01,-274.12 111.59,-278.35"/>
</g>
<!-- 8&#45;&gt;9 -->
<g id="edge14" class="edge">
<title>8&#45;&gt;9</title>
<path fill="none" stroke="grey" stroke-width="2" d="M55.7,-463.83C56.05,-442.01 59.15,-403.86 75,-376 81.46,-364.65 91.29,-354.54 101.18,-346.28"/>
<polygon fill="grey" stroke="grey" stroke-width="2" points="103.39,-349 109.07,-340.06 99.05,-343.5 103.39,-349"/>
</g>
<!-- 11 -->
<g id="node11" class="node">
<title>11</title>
<path fill="none" stroke="#568ad8" stroke-width="2" d="M176,-428C176,-428 96,-428 96,-428 90,-428 84,-422 84,-416 84,-416 84,-388 84,-388 84,-382 90,-376 96,-376 96,-376 176,-376 176,-376 182,-376 188,-382 188,-388 188,-388 188,-416 188,-416 188,-422 182,-428 176,-428"/>
<text text-anchor="middle" x="136" y="-416" font-family="sans" font-size="10.00">index_fa</text>
<text text-anchor="middle" x="136" y="-405" font-family="sans" font-size="10.00">ext: fa</text>
<text text-anchor="middle" x="136" y="-394" font-family="sans" font-size="10.00">file: m_hyperodae</text>
<text text-anchor="middle" x="136" y="-383" font-family="sans" font-size="10.00">path: wga/tmp</text>
</g>
<!-- 8&#45;&gt;11 -->
<g id="edge16" class="edge">
<title>8&#45;&gt;11</title>
<path fill="none" stroke="grey" stroke-width="2" d="M73.75,-463.69C82.26,-455.39 92.74,-445.17 102.66,-435.5"/>
<polygon fill="grey" stroke="grey" stroke-width="2" points="105.38,-437.74 110.1,-428.26 100.49,-432.73 105.38,-437.74"/>
</g>
<!-- 9&#45;&gt;5 -->
<g id="edge8" class="edge">
<title>9&#45;&gt;5</title>
<path fill="none" stroke="grey" stroke-width="2" d="M134.27,-303.7C133.5,-295.98 132.57,-286.71 131.71,-278.11"/>
<polygon fill="grey" stroke="grey" stroke-width="2" points="135.19,-277.71 130.71,-268.1 128.22,-278.4 135.19,-277.71"/>
</g>
<!-- 10&#45;&gt;7 -->
<g id="edge10" class="edge">
<title>10&#45;&gt;7</title>
<path fill="none" stroke="grey" stroke-width="2" d="M253.88,-303.87C253.71,-279.67 253.4,-235.21 253.19,-206.39"/>
<polygon fill="grey" stroke="grey" stroke-width="2" points="256.69,-206.16 253.12,-196.19 249.69,-206.21 256.69,-206.16"/>
</g>
<!-- 11&#45;&gt;9 -->
<g id="edge11" class="edge">
<title>11&#45;&gt;9</title>
<path fill="none" stroke="grey" stroke-width="2" d="M136,-375.89C136,-367.84 136,-358.88 136,-350.66"/>
<polygon fill="grey" stroke="grey" stroke-width="2" points="139.5,-350.41 136,-340.41 132.5,-350.41 139.5,-350.41"/>
</g>
</g>
</svg>
